<svg width="1600" height="1600" viewBox="0 0 1600 1600" fill="none" xmlns="http://www.w3.org/2000/svg">
  <defs>
    <linearGradient id="bg" x1="220" y1="180" x2="1380" y2="1420" gradientUnits="userSpaceOnUse">
      <stop stop-color="#2563EB"/>
      <stop offset="0.5" stop-color="#7C3AED"/>
      <stop offset="1" stop-color="#EA580C"/>
    </linearGradient>
    <filter id="shadow" x="120" y="120" width="1360" height="1360" filterUnits="userSpaceOnUse" color-interpolation-filters="sRGB">
      <feFlood flood-opacity="0" result="BackgroundImageFix"/>
      <feColorMatrix in="SourceAlpha" type="matrix" values="0 0 0 0 0 0 0 0 0 0 0 0 0 0 0 0 0 0 127 0" result="hardAlpha"/>
      <feOffset dy="24"/>
      <feGaussianBlur stdDeviation="24"/>
      <feComposite in2="hardAlpha" operator="out"/>
      <feColorMatrix type="matrix" values="0 0 0 0 0.0588235 0 0 0 0 0.0941176 0 0 0 0 0.164706 0 0 0 0.22 0"/>
      <feBlend mode="normal" in2="BackgroundImageFix" result="effect1_dropShadow_1_1"/>
      <feBlend mode="normal" in="SourceGraphic" in2="effect1_dropShadow_1_1" result="shape"/>
    </filter>
  </defs>

  <rect width="1600" height="1600" fill="transparent"/>

  <g filter="url(#shadow)">
    <rect x="180" y="180" width="1240" height="1240" rx="72" fill="url(#bg)"/>
    <circle cx="1180" cy="420" r="120" fill="rgba(255,255,255,0.18)"/>
    <circle cx="420" cy="1180" r="150" fill="rgba(255,255,255,0.12)"/>
  </g>

  <text x="800" y="560" text-anchor="middle" font-family="Arial, Helvetica, sans-serif" font-size="150" font-weight="900" fill="white">DTF TEST</text>
  <text x="800" y="730" text-anchor="middle" font-family="Arial, Helvetica, sans-serif" font-size="72" font-weight="700" fill="#DBEAFE">Sample Upload Design</text>
  <text x="800" y="840" text-anchor="middle" font-family="Arial, Helvetica, sans-serif" font-size="46" font-weight="600" fill="#F8FAFC">Front Chest • 12 x 12 in</text>

  <g transform="translate(520 960)">
    <path d="M140 0C62.68 0 0 62.68 0 140C0 217.32 62.68 280 140 280C217.32 280 280 217.32 280 140C280 62.68 217.32 0 140 0Z" fill="white" fill-opacity="0.16"/>
    <path d="M88 118C101.255 118 112 107.255 112 94C112 80.7452 101.255 70 88 70C74.7452 70 64 80.7452 64 94C64 107.255 74.7452 118 88 118Z" fill="white"/>
    <path d="M192 118C205.255 118 216 107.255 216 94C216 80.7452 205.255 70 192 70C178.745 70 168 80.7452 168 94C168 107.255 178.745 118 192 118Z" fill="white"/>
    <path d="M83 180C99 202 121 214 140 214C159 214 181 202 197 180" stroke="white" stroke-width="16" stroke-linecap="round"/>
  </g>
</svg>